# xmcd
#
# Track frame offsets: 
#        150
#        10021
#        20032
#        29711
#        38336
#        47360
#        56814
#        65933
#        75362
#        83778
#        93640
#        104798
#
# Disc length: 1511 seconds
#
# Revision: 0
# Processed by: cddbd v1.5.2PL0 Copyright (c) Steve Scherf et al.
# Submitted via: ExactAudioCopy v0.99pb4
#
DISCID=9805e50c
DTITLE=Lester Flatt and Earl Scruggs - Foggy Mountain Banjo
DYEAR=1961
DGENRE=Bluegrass
TTITLE0=Ground Speed
TTITLE1=Home Sweet Home
TTITLE2=Sally Ann
TTITLE3=Little Darlin', Pal of Mine
TTITLE4=Reuben
TTITLE5=Cripple Creek
TTITLE6=Lonesome Road Blues
TTITLE7=John Henry
TTITLE8=Fire Ball Mail
TTITLE9=Sally Goodwin
TTITLE10=Bugle Call Rag
TTITLE11=Cumberland
EXTD=
EXTT0=
EXTT1=
EXTT2=
EXTT3=
EXTT4=
EXTT5=
EXTT6=
EXTT7=
EXTT8=
EXTT9=
EXTT10=
EXTT11=
PLAYORDER=
